<svg width="197" height="36" viewBox="0 0 197 36" fill="none" xmlns="http://www.w3.org/2000/svg">
<path fill-rule="evenodd" clip-rule="evenodd" d="M35.3053 27.61C35.3053 32.1552 31.6575 35.8403 27.1576 35.8403H8.14775C3.64782 35.8403 0 32.1552 0 27.61V8.40616C0 3.86096 3.64782 0.175781 8.14775 0.175781H27.1576C31.6575 0.175781 35.3053 3.86096 35.3053 8.40616V27.61Z" fill="white"/>
<path fill-rule="evenodd" clip-rule="evenodd" d="M2.14764 27.9898C2.14764 31.1572 4.71117 33.7247 7.87369 33.7247H27.9163C31.0789 33.7247 33.6424 31.1572 33.6424 27.9898V7.91702C33.6424 4.74965 31.0783 2.18159 27.9163 2.18159H7.87369C4.71117 2.18159 2.14764 4.74965 2.14764 7.91702V27.9898ZM0 28.7084C0 32.6663 3.2074 35.8756 7.15681 35.8756H28.6332C32.5856 35.8756 35.79 32.6627 35.79 28.7084V7.19844C35.79 3.23998 32.582 0.03125 28.6332 0.03125H7.15681C3.20441 0.03125 0 3.24357 0 7.19844V28.7084Z" fill="#EB9B4B"/>
<path fill-rule="evenodd" clip-rule="evenodd" d="M2.50151 33.7378C1.88636 33.1714 0.365842 29.8147 2.23044 28.2912C7.95469 23.6148 7.84219 18.3678 12.4421 18.3678C16.6949 18.3678 18.742 25.5428 21.8829 25.5428C24.0659 25.5428 25.1221 24.3951 25.9778 22.6301C28.7812 16.8503 28.7244 4.44453 34.6748 4.00404C35.6502 3.93152 33.566 33.5898 33.566 33.5898L16.8582 35.2373C16.8582 35.2373 3.11726 34.3041 2.50151 33.7378Z" fill="#EB9B4B"/>
<path fill-rule="evenodd" clip-rule="evenodd" d="M194.768 12.9136C195.412 12.9136 196.102 12.979 196.838 13.1096L196.573 14.4395C195.938 14.2813 195.281 14.2016 194.602 14.2016C193.306 14.2016 192.243 14.7523 191.414 15.8539C190.584 16.9554 190.169 18.3464 190.169 20.0263V28.4275H188.785V13.2079H189.96L190.099 15.9522H190.197C190.821 14.8314 191.489 14.0457 192.197 13.5927C192.904 13.1396 193.762 12.9136 194.768 12.9136ZM179.161 14.1458C177.699 14.1458 176.524 14.6289 175.638 15.595C174.753 16.5611 174.235 17.9545 174.086 19.7746H183.481C183.481 18.0102 183.099 16.6312 182.335 15.6369C181.57 14.6427 180.513 14.1458 179.161 14.1458ZM179.567 28.7074C177.358 28.7074 175.636 28.0265 174.401 26.6631C173.165 25.3003 172.548 23.392 172.548 20.9367C172.548 18.5094 173.144 16.5659 174.337 15.1047C175.531 13.6442 177.139 12.9136 179.161 12.9136C180.951 12.9136 182.363 13.5387 183.397 14.7895C184.432 16.0409 184.949 17.7393 184.949 19.8867V21.0068H174.002C174.021 23.0978 174.509 24.6938 175.463 25.7953C176.419 26.8962 177.787 27.4476 179.567 27.4476C180.434 27.4476 181.195 27.3865 181.852 27.2654C182.51 27.1444 183.341 26.8825 184.348 26.4815V27.7413C183.49 28.1146 182.698 28.3693 181.971 28.5048C181.244 28.6396 180.443 28.7074 179.567 28.7074ZM161.862 21.7487L169.621 13.2079H171.298L165.315 19.7045L171.816 28.4275H170.152L164.378 20.7407L161.89 23.0091V28.4275H160.506V6.64062H161.89V17.5619L161.792 21.7487H161.862ZM154.572 28.4275V18.5562C154.572 17.0249 154.251 15.912 153.608 15.2168C152.965 14.5216 151.968 14.174 150.616 14.174C148.799 14.174 147.469 14.6337 146.625 15.553C145.781 16.4724 145.36 17.9635 145.36 20.0263V28.4275H143.975V13.2079H145.15L145.415 15.2941H145.5C146.487 13.7071 148.244 12.9136 150.77 12.9136C154.218 12.9136 155.943 14.7667 155.943 18.4723V28.4275H154.572ZM132.8 27.4476C134.421 27.4476 135.701 26.9831 136.637 26.0542C137.574 25.1253 138.042 23.8349 138.042 22.1826V20.6843L135.386 20.7964C133.252 20.8995 131.73 21.2327 130.822 21.7979C129.913 22.3624 129.458 23.2416 129.458 24.4372C129.458 25.389 129.75 26.1291 130.332 26.6565C130.914 27.1839 131.737 27.4476 132.8 27.4476ZM138.392 28.4275L138.042 26.0194H137.931C137.166 26.9993 136.381 27.6927 135.575 28.0985C134.769 28.5048 133.816 28.7074 132.716 28.7074C131.225 28.7074 130.065 28.3244 129.235 27.5597C128.405 26.7943 127.991 25.7342 127.991 24.3809C127.991 22.897 128.608 21.7439 129.843 20.9229C131.078 20.1012 132.865 19.6673 135.204 19.6206L138.099 19.5361V18.528C138.099 17.0813 137.805 15.9893 137.217 15.2516C136.63 14.5144 135.685 14.1458 134.38 14.1458C132.972 14.1458 131.514 14.5378 130.004 15.3217L129.486 14.1177C131.155 13.3338 132.805 12.9412 134.436 12.9412C136.104 12.9412 137.351 13.3757 138.175 14.2441C139 15.1119 139.412 16.4652 139.412 18.3045V28.4275H138.392ZM114.284 18.2763H118.185C119.909 18.2763 121.247 17.8909 122.197 17.1214C123.148 16.3507 123.623 15.2144 123.623 13.7119C123.623 12.1525 123.157 11.0186 122.226 10.309C121.293 9.60004 119.774 9.24524 117.667 9.24524H114.284V18.2763ZM114.284 19.5085V28.4275H112.858V7.95672H117.723C120.259 7.95672 122.132 8.42598 123.343 9.36391C124.555 10.3024 125.161 11.7144 125.161 13.5999C125.161 14.9723 124.799 16.129 124.078 17.0717C123.355 18.015 122.258 18.6916 120.785 19.1028L126.335 28.4275H124.629L119.359 19.5085H114.284ZM97.1809 13.2079V23.0648C97.1809 24.5961 97.5023 25.709 98.1449 26.4042C98.7882 27.0994 99.7857 27.4476 101.137 27.4476C102.945 27.4476 104.275 26.9903 105.128 26.0752C105.982 25.1606 106.408 23.6719 106.408 21.6085V13.2079H107.778V28.4275H106.603L106.352 26.3269H106.268C105.28 27.9145 103.523 28.7074 100.997 28.7074C97.54 28.7074 95.8112 26.8543 95.8112 23.1487V13.2079H97.1809ZM88.801 28.7074C86.6294 28.7074 84.9282 28.0211 83.6985 26.6493C82.4676 25.2769 81.8524 23.3639 81.8524 20.9085C81.8524 18.3884 82.4909 16.4256 83.7679 15.0208C85.0449 13.616 86.7922 12.9136 89.0104 12.9136C90.3251 12.9136 91.5829 13.142 92.7851 13.5999L92.4075 14.8314C91.0941 14.3933 89.9523 14.174 88.9823 14.174C87.1189 14.174 85.7067 14.7499 84.7469 15.903C83.787 17.0561 83.3065 18.715 83.3065 20.8803C83.3065 22.9342 83.787 24.5421 84.7469 25.7042C85.7067 26.8663 87.0489 27.4476 88.7729 27.4476C90.1522 27.4476 91.4339 27.2001 92.6176 26.7051V27.9936C91.6482 28.4694 90.376 28.7074 88.801 28.7074ZM75.5561 28.7074C73.3845 28.7074 71.6833 28.0211 70.453 26.6493C69.2227 25.2769 68.6075 23.3639 68.6075 20.9085C68.6075 18.3884 69.246 16.4256 70.523 15.0208C71.8 13.616 73.5473 12.9136 75.7655 12.9136C77.0796 12.9136 78.3381 13.142 79.5402 13.5999L79.1632 14.8314C77.8486 14.3933 76.7068 14.174 75.7374 14.174C73.8734 14.174 72.4612 14.7499 71.5014 15.903C70.5416 17.0561 70.0616 18.715 70.0616 20.8803C70.0616 22.9342 70.5416 24.5421 71.5014 25.7042C72.4612 26.8663 73.804 27.4476 75.528 27.4476C76.9073 27.4476 78.189 27.2001 79.3727 26.7051V27.9936C78.4033 28.4694 77.1311 28.7074 75.5561 28.7074ZM55.0688 19.9142H62.3806L59.5987 12.5355C59.3659 11.9565 59.0859 11.1541 58.7598 10.1274C58.5084 11.0234 58.2338 11.8355 57.9352 12.5636L55.0688 19.9142ZM62.8564 21.2028H54.5518L51.6999 28.4275H50.1201L58.3403 7.87281H59.2492L67.3018 28.4275H65.6946L62.8564 21.2028Z" fill="white"/>
</svg>
